<svg xmlns="http://www.w3.org/2000/svg" viewBox="0 0 220 220">
<defs><linearGradient id="g" x1="0" x2="1"><stop stop-color="#a7d67c"/><stop offset="1" stop-color="#2e7d32"/></linearGradient></defs>
<rect width="220" height="220" rx="38" fill="#0f1f17"/>
<circle cx="108" cy="108" r="78" fill="none" stroke="url(#g)" stroke-width="10"/>
<path d="M48 111c42-48 92-44 132-4-41 37-89 39-132 4z" fill="#e9f2df"/>
<path d="M70 111c27-27 63-26 91-5-31 24-62 24-91 5z" fill="#1e3a2d"/>
<circle cx="143" cy="94" r="6" fill="#0f1f17"/>
<path d="M50 84c25-39 68-58 116-43" fill="none" stroke="#7ec05a" stroke-width="8" stroke-linecap="round"/>
<path d="M173 114c19 11 25 22 22 34-3 11-17 13-24 4" fill="none" stroke="#e9f2df" stroke-width="7" stroke-linecap="round"/>
<path d="M67 133c25 11 55 12 86 1" fill="none" stroke="#d8e8cd" stroke-width="7" stroke-linecap="round"/>
</svg>