<svg xmlns="http://www.w3.org/2000/svg" viewBox="0 0 900 520"><defs><linearGradient id="bg" x1="0" x2="1" y1="0" y2="1"><stop stop-color="#dff4fb"/><stop offset="1" stop-color="#8fc2cd"/></linearGradient><filter id="s"><feDropShadow dx="0" dy="18" stdDeviation="18" flood-opacity=".28"/></filter></defs><rect width="900" height="520" fill="url(#bg)"/><path d="M0 380 C160 330 280 430 460 375 C620 330 760 380 900 335 L900 520 L0 520 Z" fill="#1d6078" opacity=".18"/><g filter="url(#s)"><polygon points="705,260 835,158 812,260 835,362" fill="#1f4b36"/><path d="M365 180 C430 96 520 105 575 186 Z" fill="#1f4b36" opacity=".82"/><path d="M420 337 C500 430 565 395 602 330 Z" fill="#1f4b36" opacity=".75"/><ellipse cx="420" cy="260" rx="300" ry="108" fill="#5e9b76"/><ellipse cx="400" cy="220" rx="205" ry="40" fill="#fff" opacity=".27"/><circle cx="287" cy="313" r="4" fill="#fff" opacity=".35"/><circle cx="526" cy="231" r="7" fill="#fff" opacity=".35"/><circle cx="442" cy="315" r="6" fill="#fff" opacity=".35"/><circle cx="564" cy="217" r="8" fill="#fff" opacity=".35"/><circle cx="398" cy="207" r="6" fill="#fff" opacity=".35"/><circle cx="475" cy="263" r="6" fill="#fff" opacity=".35"/><circle cx="320" cy="263" r="6" fill="#fff" opacity=".35"/><circle cx="276" cy="325" r="8" fill="#fff" opacity=".35"/><circle cx="368" cy="198" r="5" fill="#fff" opacity=".35"/><circle cx="323" cy="318" r="7" fill="#fff" opacity=".35"/><circle cx="210" cy="226" r="18" fill="white"/><circle cx="215" cy="226" r="8" fill="#111"/><path d="M105 260 C135 240 158 238 178 250" stroke="#152a34" stroke-width="8" fill="none" stroke-linecap="round"/></g></svg>